<svg id="Layer_1" data-name="Layer 1" xmlns="http://www.w3.org/2000/svg" width="60" height="60" viewBox="0 0 60 60"><title>Artboard 1</title><circle cx="30" cy="30" r="24" style="fill:#e2f2f2"/><rect x="18.11" y="9.35" width="24.18" height="5.92" style="fill:#a1d3d3"/><path d="M45.88,17.06h1.67a1.67,1.67,0,0,1,1.67,1.67V40.4a1.66,1.66,0,0,1-1.67,1.66h-35a1.66,1.66,0,0,1-1.67-1.66V18.73a1.67,1.67,0,0,1,1.67-1.67h1.67m7.5,30H38.38m-10.83-5v5m5-5v5m-15-13.33V10.4a1.67,1.67,0,0,1,1.67-1.67H40.88a1.67,1.67,0,0,1,1.67,1.67V33.73M21.72,20.4h5a.83.83,0,0,1,.83.83v5a.83.83,0,0,1-.83.83h-5a.84.84,0,0,1-.84-.83v-5A.84.84,0,0,1,21.72,20.4Zm9.33,5h8.17m-8.17-4.17h8.17M20.88,30.4H39.22M10.88,37.06H49.22M17.55,15.4h25M21.3,12.06a.42.42,0,1,1-.42.42.42.42,0,0,1,.42-.42m3.33,0a.42.42,0,0,1,0,.84.42.42,0,0,1,0-.84m3.34,0a.42.42,0,0,1,0,.84.42.42,0,0,1,0-.84" style="fill:none;stroke:#000;stroke-linecap:round;stroke-linejoin:round;stroke-width:1.6666666269302368px"/></svg>