<svg id="Layer_1" data-name="Layer 1" xmlns="http://www.w3.org/2000/svg" width="60" height="60" viewBox="0 0 60 60"><title>Artboard 1</title><circle cx="30" cy="30" r="24" style="fill:#e2f2f2"/><polyline points="36.38 23.27 39.09 27.98 40.86 28.14 45.7 21.86 45.86 14.12 44.57 10.58 42.15 17.83 37.8 22.02 35.4 22.45" style="fill:#a1d3d3"/><path d="M39.19,28.86a13,13,0,0,0,6.62-14l0-.1a14,14,0,0,0-2.15-5.49,14.47,14.47,0,0,1,0,5.29M32,21,43.64,9.31a14.47,14.47,0,0,1,0,5.29c-1,4.11-4,7.67-8.19,7.85m-3,5.16c5.09,5.09-11.76,15.29-7,20L36.3,36.69a9.22,9.22,0,0,0,.46-13l-.19-.2M26,28.21l5.8,5.8m.61-6.4c-5.11-5.11-15.29,11.75-20,7L23.33,23.73a9.23,9.23,0,0,1,13.05-.46l.19.18.28.28a2.94,2.94,0,0,1-4.12,4.19Zm2.37-2.34a.4.4,0,0,1,0,.58h0m-.59-.58a.41.41,0,0,1,.59,0h0m-.59.58a.41.41,0,0,1,0-.58h0m.59.58a.4.4,0,0,1-.58,0h0" style="fill:none;stroke:#000;stroke-linecap:round;stroke-linejoin:round;stroke-width:1.6666666269302368px"/></svg>