<svg width="100%" height="100%" xmlns="http://www.w3.org/2000/svg">
  <pattern id="waves" x="0" y="0" width="100" height="100" patternUnits="userSpaceOnUse">
    <path d="M6.6,2.1a43.4,43.4,0,0,0,8.9,2.5h1.1l2.7.2a13.3,13.3,0,0,0,2.8-.3H23c2.5-.6,4.9-1.4,7.3-2.2S34.1,1,36.1.5L38,0H33.4L29.9,1.2a54.6,54.6,0,0,1-7.2,2.1h-.2v.1h-.6a18.1,18.1,0,0,1-5.2,0h-1A43.1,43.1,0,0,1,7,1L4.2,0H0L1.7.5Z">
    </path>
    <path d="M54.7,2.3l4.2,1.3a36.4,36.4,0,0,0,7.3,1.3h2.6c4.4,0,8.4-1.3,12.5-2.6a59.4,59.4,0,0,1,6-1.8l2-.5H84.5L81,1.1c-4.1,1.3-7.9,2.6-12.2,2.6H66.3a32.1,32.1,0,0,1-7-1.2L55.1,1.1,51.6,0H47l1.9.5C50.9,1,52.7,1.6,54.7,2.3Z">
    </path>
    <path d="M99.8,5.1l-1.3-.3A27.4,27.4,0,0,0,88,5.3a71.5,71.5,0,0,0-7,2c-4.1,1.3-7.9,2.6-12.2,2.6H66.3a32.1,32.1,0,0,1-7-1.2L55.1,7.4c-4.9-1.7-9.5-3.2-14.8-2.7A49.6,49.6,0,0,0,29.9,7.4a54.6,54.6,0,0,1-7.2,2.1h-.8a18.1,18.1,0,0,1-5.2,0h-1A37.4,37.4,0,0,1,7,7.2,63.7,63.7,0,0,0,.4,5.1H0V6.3H.2a53.5,53.5,0,0,1,6.4,2,37.9,37.9,0,0,0,8.9,2.5h1.1a20.2,20.2,0,0,0,5.5,0l.6-.2H23c2.5-.6,4.9-1.4,7.3-2.2A47.7,47.7,0,0,1,40.5,5.9c5-.5,9.5,1,14.2,2.6l4.2,1.4a35.7,35.7,0,0,0,7.3,1.2h2.7c4.4,0,8.3-1.3,12.5-2.6a69.5,69.5,0,0,1,6.9-2A24.4,24.4,0,0,1,98.2,6l1.5.3h.3V5.2Z">
    </path>
    <path d="M98.5,11.1a25.3,25.3,0,0,0-10.5.4,71.5,71.5,0,0,0-7,2.1c-4.1,1.3-7.9,2.5-12.2,2.5H66.3a32.1,32.1,0,0,1-7-1.2l-4.2-1.3c-4.9-1.7-9.5-3.2-14.8-2.7a49.6,49.6,0,0,0-10.4,2.7,54.6,54.6,0,0,1-7.2,2.1h-.8a22.9,22.9,0,0,1-5.2.1l-1-.2A33.1,33.1,0,0,1,7,13.4c-2.1-.7-4.3-1.5-6.6-2.1H0v1.2H.2a53.4,53.4,0,0,1,6.4,2.1A43.2,43.2,0,0,0,15.5,17l1.1.2a25.8,25.8,0,0,0,5.5-.1H23a61.4,61.4,0,0,0,7.3-2.2,47.7,47.7,0,0,1,10.2-2.6c5-.5,9.5,1,14.2,2.6l4.2,1.4a35.7,35.7,0,0,0,7.3,1.2h2.6c4.5,0,8.4-1.3,12.5-2.6,2.3-.7,4.6-1.5,7-2a24.4,24.4,0,0,1,9.9-.5l1.5.3h.3V11.4h-.2Z">
    </path>
    <path d="M98.5,17.3a25.3,25.3,0,0,0-10.5.4,71.5,71.5,0,0,0-7,2.1c-4.1,1.3-8,2.6-12.2,2.5H66.3a32.1,32.1,0,0,1-7-1.2l-4.2-1.3c-4.9-1.6-9.5-3.2-14.8-2.7a49.6,49.6,0,0,0-10.4,2.7c-2.3.8-4.7,1.6-7.2,2.2h-.2v0h-.6a22.9,22.9,0,0,1-5.2.1h-1A37.7,37.7,0,0,1,7,19.6a63.6,63.6,0,0,0-6.6-2H0v1.2H.2a39.9,39.9,0,0,1,6.4,2,43.4,43.4,0,0,0,8.9,2.5h1.1a20.5,20.5,0,0,0,5.5-.1H23A60.9,60.9,0,0,0,30.3,21a42.5,42.5,0,0,1,10.2-2.7c5-.5,9.5,1,14.2,2.6l4.2,1.4a35.7,35.7,0,0,0,7.3,1.2h2.6c4.5,0,8.4-1.2,12.5-2.6,2.3-.7,4.6-1.5,7-2a22.6,22.6,0,0,1,9.9-.4,4,4,0,0,1,1.5.3h.3V17.6h-.2A6.1,6.1,0,0,0,98.5,17.3Z">
    </path>
    <path d="M98.5,23.5A25.5,25.5,0,0,0,88,24a71.5,71.5,0,0,0-7,2c-4.1,1.3-7.9,2.5-12.2,2.5h-.6a5.9,5.9,0,0,1-1.9,0,31.6,31.6,0,0,1-7-1.1L55.1,26c-4.9-1.6-9.5-3.2-14.8-2.6A44,44,0,0,0,29.9,26c-2.3.8-4.7,1.6-7.2,2.2h-.8a18.3,18.3,0,0,1-5.2.1h-1A43.1,43.1,0,0,1,7,25.9,46.2,46.2,0,0,0,.4,23.8H0v1.2H.2a53.5,53.5,0,0,1,6.4,2,43.4,43.4,0,0,0,8.9,2.5h1.1a20.5,20.5,0,0,0,5.5-.1H23a60.9,60.9,0,0,0,7.3-2.1,42.4,42.4,0,0,1,10.2-2.6c5-.5,9.5,1,14.2,2.6l4.2,1.3a35.7,35.7,0,0,0,7.3,1.2h2.7c4.4,0,8.3-1.2,12.5-2.6l6.9-2c4-.8,6.9-1,9.9-.4l1.5.3h.3V23.8h-.2Z">
    </path>
    <path d="M98.5,29.7a25.5,25.5,0,0,0-10.5.5,71.5,71.5,0,0,0-7,2c-4.1,1.3-7.9,2.6-12.2,2.6H66.3a32.1,32.1,0,0,1-7-1.2l-4.2-1.4c-4.9-1.6-9.5-3.1-14.8-2.6a44.1,44.1,0,0,0-10.4,2.7,54.6,54.6,0,0,1-7.2,2.1h-.2v.1h-.6a18.1,18.1,0,0,1-5.2,0h-1A43.1,43.1,0,0,1,7,32.1,46.2,46.2,0,0,0,.4,30H0v1.3H.2a53.5,53.5,0,0,1,6.4,2,43.4,43.4,0,0,0,8.9,2.5h1.1a17.1,17.1,0,0,0,5.5-.1H23c2.5-.6,4.9-1.4,7.3-2.2a42.4,42.4,0,0,1,10.2-2.6c5-.5,9.5,1,14.2,2.6l4.2,1.3A36.4,36.4,0,0,0,66.2,36h2.6c4.5,0,8.4-1.3,12.5-2.6a56,56,0,0,1,7-2c4-.9,6.9-1.1,9.9-.5l1.5.3h.3V30h-.2Z">
    </path>
    <path d="M98.5,35.9a27.4,27.4,0,0,0-10.5.5,71.5,71.5,0,0,0-7,2C76.9,39.7,73.1,41,68.8,41H66.3a32.1,32.1,0,0,1-7-1.2l-4.2-1.3c-4.9-1.7-9.5-3.2-14.8-2.7a44.1,44.1,0,0,0-10.4,2.7,54.6,54.6,0,0,1-7.2,2.1h-.2v.2h0v-.2h-.6a18.1,18.1,0,0,1-5.2,0h-1A37.4,37.4,0,0,1,7,38.3,63.7,63.7,0,0,0,.4,36.2H0v1.3H.2a53.5,53.5,0,0,1,6.4,2,37.9,37.9,0,0,0,8.9,2.5h1.1a20.2,20.2,0,0,0,5.5,0l.6-.2H23c2.5-.6,4.9-1.4,7.3-2.2A47.7,47.7,0,0,1,40.5,37c5-.5,9.5,1,14.2,2.6L58.9,41a35.7,35.7,0,0,0,7.3,1.2h2.6c4.5,0,8.4-1.3,12.6-2.6a50.1,50.1,0,0,1,6.9-2,24.4,24.4,0,0,1,9.9-.5l1.5.3h.3V36.3h-.2Z">
    </path>
    <path d="M98.5,42.1a27.4,27.4,0,0,0-10.5.5l-7,2c-4.1,1.4-8,2.6-12.2,2.6H66.3a32.1,32.1,0,0,1-7-1.2l-4.2-1.3C50.2,43,45.6,41.5,40.3,42a49.6,49.6,0,0,0-10.4,2.7,54.6,54.6,0,0,1-7.2,2.1h-.8a22.9,22.9,0,0,1-5.2.1l-1-.2A33.1,33.1,0,0,1,7,44.5C4.9,43.8,2.7,43,.4,42.4H0v1.2H.2a53.4,53.4,0,0,1,6.4,2.1,43.2,43.2,0,0,0,8.9,2.4l1.1.2a25.8,25.8,0,0,0,5.5-.1H23a61.4,61.4,0,0,0,7.3-2.2,47.7,47.7,0,0,1,10.2-2.6c5-.5,9.5,1,14.2,2.6l4.2,1.4a35.7,35.7,0,0,0,7.3,1.2h2.7c4.4,0,8.3-1.3,12.4-2.6,2.3-.7,4.6-1.5,7-2a24.4,24.4,0,0,1,9.9-.5l1.5.3h.3V42.5h-.2Z">
    </path>
    <path d="M98.5,48.4a25.3,25.3,0,0,0-10.5.4c-2.4.6-4.7,1.3-7,2.1-4.1,1.3-8,2.5-12.2,2.5H66.3a32.1,32.1,0,0,1-7-1.2l-4.2-1.3c-4.9-1.6-9.5-3.2-14.8-2.7a49.6,49.6,0,0,0-10.4,2.7A54.6,54.6,0,0,1,22.7,53h-.8a22.9,22.9,0,0,1-5.2.1h-1A37.7,37.7,0,0,1,7,50.7C4.9,50,2.7,49.2.4,48.6H0v1.2H.2a39.9,39.9,0,0,1,6.4,2,43.2,43.2,0,0,0,8.9,2.4l1.1.2a25.8,25.8,0,0,0,5.5-.1H23a60.9,60.9,0,0,0,7.3-2.1,42.5,42.5,0,0,1,10.2-2.7c5-.5,9.5,1,14.2,2.6l4.2,1.4a35.7,35.7,0,0,0,7.3,1.2h2.6c4.5,0,8.4-1.2,12.5-2.6,2.3-.7,4.6-1.5,7-2a24.4,24.4,0,0,1,9.9-.5l1.5.4h.3V48.7h-.2Z">
    </path>
    <path d="M98.5,54.6a23.9,23.9,0,0,0-10.5.5,71.5,71.5,0,0,0-7,2h-.1c-4.1,1.3-7.9,2.5-12.1,2.5h-.7a10.5,10.5,0,0,1-1.8,0,38.7,38.7,0,0,1-7-1.1l-4.1-1.4h-.1c-4.9-1.6-9.5-3.2-14.8-2.6a44,44,0,0,0-10.4,2.6c-2.3.8-4.7,1.6-7.2,2.2h-.8a18.3,18.3,0,0,1-5.2.1h-1A43.1,43.1,0,0,1,7,57,46.2,46.2,0,0,0,.4,54.9H0V56H.2a59.8,59.8,0,0,1,6.4,2,43.4,43.4,0,0,0,8.9,2.5h1.1a20.5,20.5,0,0,0,5.5-.1H23a60.9,60.9,0,0,0,7.3-2.1,42.4,42.4,0,0,1,10.2-2.6c5-.6,9.5,1,14.2,2.5h.1l4.1,1.3a35.7,35.7,0,0,0,7.3,1.2h2.6c4.5,0,8.4-1.2,12.5-2.6l7-2c4-.8,6.9-1,9.9-.4l1.5.3h.3V54.9h-.2Z">
    </path>
    <path d="M98.5,60.8a25.5,25.5,0,0,0-10.5.5c-2.4.5-4.8,1.3-7.1,2-4,1.3-7.8,2.6-12,2.6H66.3a32.1,32.1,0,0,1-7-1.2l-4.2-1.4c-4.9-1.6-9.5-3.1-14.8-2.6a44.1,44.1,0,0,0-10.4,2.7c-2.3.7-4.7,1.6-7.2,2.1h-.2l-.6.2a18.1,18.1,0,0,1-5.2,0h-1A43.1,43.1,0,0,1,7,63.2,46.2,46.2,0,0,0,.4,61.1H0v1.2H.2a59.8,59.8,0,0,1,6.4,2,43.4,43.4,0,0,0,8.9,2.5h1.1a17.1,17.1,0,0,0,5.5-.1H23c2.5-.6,4.9-1.4,7.3-2.2a42.4,42.4,0,0,1,10.2-2.6c5-.5,9.5,1,14.2,2.6h.1l4.1,1.3a36.4,36.4,0,0,0,7.3,1.3h2.6c4.4,0,8.3-1.3,12.5-2.7l7-2c4-.8,6.9-1,9.9-.4l1.5.3h.3V61.1h-.2Z">
    </path>
    <path d="M98.5,67a25.5,25.5,0,0,0-10.5.5c-2.4.5-4.8,1.3-7.1,2-4,1.3-7.8,2.6-12,2.6H66.3a32.1,32.1,0,0,1-7-1.2l-4.1-1.3h-.1c-4.9-1.6-9.5-3.1-14.8-2.6a44.1,44.1,0,0,0-10.4,2.7,54.6,54.6,0,0,1-7.2,2.1h-.8a18.1,18.1,0,0,1-5.2,0h-1A43.1,43.1,0,0,1,7,69.4,46.2,46.2,0,0,0,.4,67.3H0v1.3H.2a59.8,59.8,0,0,1,6.4,2A37.9,37.9,0,0,0,15.5,73h1.1a20.2,20.2,0,0,0,5.5,0l.6-.2H23c2.5-.6,4.9-1.4,7.3-2.2a47.7,47.7,0,0,1,10.2-2.6c5-.5,9.5,1,14.2,2.6h.1L58.9,72a30.5,30.5,0,0,0,7.3,1.3h2.6c4.5,0,8.4-1.3,12.5-2.6a56,56,0,0,1,7-2,24.4,24.4,0,0,1,9.9-.5l1.5.3h.3V67.3h-.2Z">
    </path>
    <path d="M98.5,73.2a27.4,27.4,0,0,0-10.5.5l-7,2c-4.1,1.4-7.9,2.6-12.2,2.6H66.3a32.1,32.1,0,0,1-7-1.2l-4.2-1.3c-4.9-1.7-9.5-3.2-14.8-2.7a49.6,49.6,0,0,0-10.4,2.7,54.6,54.6,0,0,1-7.2,2.1h-.8a22.9,22.9,0,0,1-5.2.1l-1-.2A37.4,37.4,0,0,1,7,75.6c-2.1-.7-4.3-1.5-6.6-2.1H0v1.2H.2c2.3.6,4.4,1.3,6.4,2a37.9,37.9,0,0,0,8.9,2.5h1.1a20.2,20.2,0,0,0,5.5,0H23a61.4,61.4,0,0,0,7.3-2.2,47.7,47.7,0,0,1,10.2-2.6c5-.5,9.5,1,14.2,2.6h.1l4.1,1.4a35.7,35.7,0,0,0,7.3,1.2h2.6c4.5,0,8.4-1.3,12.5-2.6,2.3-.7,4.6-1.5,7-2a24.4,24.4,0,0,1,9.9-.5l1.5.3h.3V73.6h-.2Z">
    </path>
    <path d="M98.5,79.5a25.3,25.3,0,0,0-10.5.4c-2.4.6-4.7,1.3-7,2.1-4.1,1.3-7.9,2.5-12.2,2.5H66.3a32.1,32.1,0,0,1-7-1.2L55.1,82c-4.9-1.6-9.5-3.2-14.8-2.7A49.6,49.6,0,0,0,29.9,82a54.6,54.6,0,0,1-7.2,2.1h-.8a22.9,22.9,0,0,1-5.2.1l-1-.2A33.1,33.1,0,0,1,7,81.8c-2.1-.7-4.3-1.5-6.6-2.1H0v1.2H.2A60,60,0,0,1,6.6,83a43.2,43.2,0,0,0,8.9,2.4l1.1.2a25.8,25.8,0,0,0,5.5-.1H23a60.9,60.9,0,0,0,7.3-2.1,42.5,42.5,0,0,1,10.2-2.7c5-.5,9.5,1,14.2,2.6h.1l4.1,1.4a35.7,35.7,0,0,0,7.3,1.2h2.6c4.4,0,8.3-1.2,12.5-2.6,2.3-.7,4.6-1.5,7-2a24.4,24.4,0,0,1,9.9-.5l1.5.3h.3V79.8h-.2Z">
    </path>
    <path d="M98.5,85.7a23.9,23.9,0,0,0-10.5.5,51.5,51.5,0,0,0-7,2c-4.1,1.3-7.9,2.5-12.2,2.5H66.3a38.7,38.7,0,0,1-7-1.1l-4.1-1.4h-.1c-4.9-1.6-9.5-3.2-14.8-2.6a44,44,0,0,0-10.4,2.6c-2.3.8-4.7,1.6-7.2,2.2h-.8a18.3,18.3,0,0,1-5.2.1h-1A43.1,43.1,0,0,1,7,88.1,46.2,46.2,0,0,0,.4,86H0v1.2H.2a43.4,43.4,0,0,1,6.4,2,43.4,43.4,0,0,0,8.9,2.5h1.1a20.5,20.5,0,0,0,5.5-.1H23a60.9,60.9,0,0,0,7.3-2.1,47.8,47.8,0,0,1,10.2-2.7c5-.5,9.5,1,14.2,2.6h.1l4.1,1.3a35.7,35.7,0,0,0,7.3,1.2h2.6c4.5,0,8.4-1.2,12.5-2.6l7-2c4-.8,6.9-1,9.9-.4l1.5.3h.3V86h-.2Z">
    </path>
    <path d="M98.4,91.9a24.8,24.8,0,0,0-10.4.5,60.9,60.9,0,0,0-7.3,2.1c-4,1.3-7.8,2.5-11.9,2.5H66.3a32.1,32.1,0,0,1-7-1.2l-4.1-1.3c-4.9-1.7-9.5-3.2-14.9-2.7A44.6,44.6,0,0,0,30,94.5c-2.4.7-4.8,1.6-7.3,2.1H22a18.7,18.7,0,0,1-5.3.1h-1a39.3,39.3,0,0,1-8.9-2.5c-2.1-.7-4.2-1.5-6.4-2H0v1.3H.2a56.2,56.2,0,0,1,6.2,2,45.2,45.2,0,0,0,9.1,2.5h1.1a20.8,20.8,0,0,0,5.6-.1H23c2.5-.6,5-1.4,7.3-2.2A49.2,49.2,0,0,1,40.5,93c5-.5,9.5,1,14.4,2.6l4,1.3a36.4,36.4,0,0,0,7.3,1.3h2.5c4.4.1,8.3-1.2,12.4-2.5q3.5-1.2,7.2-2.1a24,24,0,0,1,9.9-.4l1.5.3h.3V92.2h-.2Z">
    </path>
    <path d="M.4,98.4H0v1.3H.2l1.5.4h4l-1.5-.5Z">
    </path>
    <path d="M98.5,98.1a25.5,25.5,0,0,0-10.5.5l-3.5.9-1.6.5h4.4l1-.2a24.4,24.4,0,0,1,9.9-.5l1.5.3h.3V98.4h-.2Z">
    </path>
    <path d="M40.3,98a36.1,36.1,0,0,0-6.9,1.5l-1.6.5h4.3a25.7,25.7,0,0,1,4.4-.8,22.8,22.8,0,0,1,8.4.8h4.3l-1.6-.5A28.7,28.7,0,0,0,40.3,98Z">
    </path>
  </pattern>
  <rect x="0" y="0" width="100%" height="100%" fill="url(#waves)" />
</svg>
