<svg viewBox="0 0 40 40" style="height: 40px; width: 40px;"><g transform="scale(1.6666666666666667,1.6666666666666667)"><path style="stroke: rgb(0, 0, 0); fill: none; stroke-width: 1px; stroke-linecap: round; stroke-linejoin: round;" d="M8,17.5c0.828,0,1.5,0.672,1.5,1.5S8.828,20.5,8,20.5S6.5,19.828,6.5,19S7.172,17.5,8,17.5z M0.5,0.5h2.708 c0.464,0,0.867,0.319,0.973,0.771L8,17.5h4 M21.984,11.047l1.077-3.231c0.175-0.524-0.109-1.09-0.633-1.265 C22.326,6.517,22.219,6.5,22.112,6.5h-16.7 M7.293,14.5h4.681 M18.5,13.5c2.761,0,5,2.239,5,5s-2.239,5-5,5s-5-2.239-5-5 S15.739,13.5,18.5,13.5z M18.5,20.5v1 M18.5,15.5v1 M16.5,20.5h3c0.552,0,1-0.448,1-1s-0.448-1-1-1h-2c-0.552,0-1-0.448-1-1 s0.448-1,1-1h3"></path></g></svg>
