<svg id="Layer_1" data-name="Layer 1" xmlns="http://www.w3.org/2000/svg" width="110" height="110" viewBox="0 0 60 60"><title>Customer Care Team</title><circle cx="30" cy="30" r="24" style="fill:#e2f2f2"/><circle cx="30" cy="30" r="24" style="fill:#e2f2f2"/><polygon points="17.5 24.17 12.35 26.2 10.74 32.33 13.64 36.19 16.22 37 17.5 35.55 17.5 24.17" style="fill:#e2f2f2"/><polygon points="43.06 24.17 48.2 26.2 49.81 32.33 46.92 36.19 44.34 37 43.06 35.55 43.06 24.17" style="fill:#e2f2f2"/><path d="M36.67,45.83h1.66c3.23,0,5.84-1.77,5.84-5V37.22m-1.67-13a6.66,6.66,0,0,1,2.22,12.95,1.66,1.66,0,0,1-2.22-1.57Zm-25,0a6.66,6.66,0,0,0-2.22,12.95,1.65,1.65,0,0,0,2.12-1,1.45,1.45,0,0,0,.1-.55Zm25,2.5V23.33a12.5,12.5,0,0,0-25,0v3.34m11.67,17.5h6.66a.84.84,0,0,1,.84.83v1.67a.84.84,0,0,1-.84.83H29.17a1.67,1.67,0,0,1-1.67-1.67h0A1.66,1.66,0,0,1,29.17,44.17Z" style="fill:#e2f2f2"/><circle cx="30" cy="30" r="24" style="fill:#e2f2f2"/><polygon points="17.5 24.17 12.35 26.2 10.74 32.33 13.64 36.19 16.22 37 17.5 35.55 17.5 24.17" style="fill:#a1d3d3"/><polygon points="43.06 24.17 48.2 26.2 49.81 32.33 46.92 36.19 44.34 37 43.06 35.55 43.06 24.17" style="fill:#a1d3d3"/><path d="M36.67,45.83h1.66c3.23,0,5.84-1.77,5.84-5V37.22m-1.67-13a6.66,6.66,0,0,1,2.22,12.95,1.66,1.66,0,0,1-2.22-1.57Zm-25,0a6.66,6.66,0,0,0-2.22,12.95,1.65,1.65,0,0,0,2.12-1,1.45,1.45,0,0,0,.1-.55Zm25,2.5V23.33a12.5,12.5,0,0,0-25,0v3.34m11.67,17.5h6.66a.84.84,0,0,1,.84.83v1.67a.84.84,0,0,1-.84.83H29.17a1.67,1.67,0,0,1-1.67-1.67h0A1.66,1.66,0,0,1,29.17,44.17Z" style="fill:none;stroke:#000;stroke-linecap:round;stroke-linejoin:round;stroke-width:1.6666666269302368px"/></svg>
