<svg id="Layer_1" data-name="Layer 1" xmlns="http://www.w3.org/2000/svg" width="120" height="120" viewBox="0 0 60 60"><title>Artboard 1</title><circle cx="30" cy="30" r="24" style="fill:#ffe121"/><rect x="33.15" y="17.16" width="16.67" height="30" rx="3.33" style="fill:#fff"/><rect x="11.59" y="8.93" width="15.22" height="11.96" rx="2" style="fill:#ffe121"/><path d="M36.48,17.16h10a3.34,3.34,0,0,1,3.33,3.34V43.83a3.33,3.33,0,0,1-3.33,3.33h-10a3.33,3.33,0,0,1-3.33-3.33V20.5A3.34,3.34,0,0,1,36.48,17.16Zm5,5a2.5,2.5,0,1,1-2.5,2.5A2.5,2.5,0,0,1,41.48,22.16Zm0,10a5,5,0,1,1-5,5A5,5,0,0,1,41.48,32.16Zm-11.67,5h-15a3.33,3.33,0,0,1-3.33-3.33V12.16a3.33,3.33,0,0,1,3.33-3.33H38.15a3.33,3.33,0,0,1,3.33,3.33v1.67m-15,23.33v5m-3.33,0h6.66m-18.33-10H29.81" style="fill:none;stroke:#000;stroke-linecap:round;stroke-linejoin:round;stroke-width:1.6666666269302368px"/><path d="M20.33,27.43a.89.89,0,0,1-1.23-.34.83.83,0,0,1-.12-.44V15.37a.9.9,0,0,1,.9-.9.89.89,0,0,1,.45.12l9.87,5.64a.9.9,0,0,1,.33,1.23.87.87,0,0,1-.33.33Z" style="fill:#fff"/><path d="M20.33,27.43a.89.89,0,0,1-1.23-.34.83.83,0,0,1-.12-.44V15.37a.9.9,0,0,1,.9-.9.89.89,0,0,1,.45.12l9.87,5.64a.9.9,0,0,1,.33,1.23.87.87,0,0,1-.33.33Z" style="fill:none;stroke:#000;stroke-linecap:round;stroke-linejoin:round;stroke-width:1.6666666269302368px"/></svg>
