<svg id="Layer_1" data-name="Layer 1" xmlns="http://www.w3.org/2000/svg" width="120" height="120" viewBox="0 0 60 60"><title>Artboard 1</title><circle cx="30" cy="30" r="24" style="fill:#ffe121"/><path d="M17,42.15l4-4a3.38,3.38,0,0,1,2.36-1H37.25a3.34,3.34,0,0,1,2.35,1l4,4" style="fill:#fff"/><path d="M13.63,17.15H47a2.5,2.5,0,0,1,2.5,2.5v20a2.5,2.5,0,0,1-2.5,2.5H13.63a2.5,2.5,0,0,1-2.5-2.5v-20A2.5,2.5,0,0,1,13.63,17.15Zm3.33,25,4-4a3.38,3.38,0,0,1,2.36-1H37.25a3.34,3.34,0,0,1,2.35,1l4,4m-2.5-10a3.34,3.34,0,0,0,0-6.67H19.46a3.34,3.34,0,0,0,0,6.67Zm-25-11.68H44.46M21.13,28.4a.42.42,0,0,1,0,.84.42.42,0,0,1,0-.84m18.33,0a.42.42,0,1,1-.42.42.42.42,0,0,1,.42-.42m-5.78-2.9a6.69,6.69,0,0,0,0,6.65M26.9,25.5a6.64,6.64,0,0,1,0,6.65" style="fill:none;stroke:#000;stroke-linecap:round;stroke-linejoin:round;stroke-width:1.6666666269302368px"/></svg>
