<svg id="Layer_1" data-name="Layer 1" xmlns="http://www.w3.org/2000/svg" width="110" height="110" viewBox="0 0 60 60"><title>Merchandising Team</title><circle cx="30" cy="30" r="24" style="fill:#e2f2f2"/><polygon points="42.06 44.87 16.37 44.87 14.37 39.98 44.06 39.98 42.06 44.87" style="fill:#a1d3d3"/><path d="M36,15.6c-3,2.46-4.28,6.41-4.64,10.62M25.7,20a52.43,52.43,0,0,1,1.4,6.2m9.63,4.92a1.7,1.7,0,0,1-.91-2.2l.61-1.54a.86.86,0,0,0-.8-1.18H22.74A.86.86,0,0,0,22,27.4l.61,1.54a1.71,1.71,0,0,1-.91,2.2c-4.21,1.81-7,5.06-7,8.78a6.32,6.32,0,0,0,1,3.58,3.4,3.4,0,0,0,2.87,1.56H39.83a3.43,3.43,0,0,0,2.88-1.56,6.48,6.48,0,0,0,1-3.58C43.75,36.2,40.94,33,36.73,31.14Zm-22.1,8.78H43.75" style="fill:none;stroke:#000;stroke-linecap:round;stroke-linejoin:round;stroke-width:1.6666666269302368px"/><path d="M48.52,10.22a3,3,0,0,0-4.18-.75,2.9,2.9,0,0,0-.53.39,3.86,3.86,0,0,0,.16-1,2.84,2.84,0,1,0-5.63,0,3.41,3.41,0,0,0,.14,1,3.21,3.21,0,0,0-4.65.41,3,3,0,0,0,1.28,4.06,3.5,3.5,0,0,0,1.64.5,3.68,3.68,0,0,0-.37.32,3,3,0,0,0-.27,4.24,3,3,0,0,0,4.24-.27,3.44,3.44,0,0,0,.83-1.32A3.42,3.42,0,0,0,42,19.07a3,3,0,0,0,4.25.27A3,3,0,0,0,46,15.1a4,4,0,0,0-.38-.32,3.39,3.39,0,0,0,1.65-.5A3,3,0,0,0,48.52,10.22Z" style="fill:#e2f2f2;stroke:#000;stroke-linecap:round;stroke-linejoin:round;stroke-width:1.6666666269302368px"/><path d="M15.85,10.22A3,3,0,0,1,20,9.47a2.9,2.9,0,0,1,.53.39,3.86,3.86,0,0,1-.16-1,3,3,0,0,1,2.82-3.19A3,3,0,0,1,26,8.86a3.41,3.41,0,0,1-.14,1,2.61,2.61,0,0,1,.46-.34,3,3,0,0,1,4.19.75,3,3,0,0,1-1.28,4.06,3.5,3.5,0,0,1-1.64.5,3.68,3.68,0,0,1,.37.32,3,3,0,0,1,.27,4.24A3,3,0,0,1,24,19.08a3.53,3.53,0,0,1-.82-1.33,3.53,3.53,0,0,1-.82,1.33,3,3,0,0,1-4.25.26,3,3,0,0,1,.28-4.24,4,4,0,0,1,.38-.32,3.39,3.39,0,0,1-1.65-.5A3,3,0,0,1,15.85,10.22Z" style="fill:#e2f2f2;stroke:#000;stroke-linecap:round;stroke-linejoin:round;stroke-width:1.6666666269302368px"/><path d="M23.25,12.82a.43.43,0,0,1,.43.42" style="fill:#e2f2f2;stroke:#000;stroke-linecap:round;stroke-linejoin:round;stroke-width:1.6666666269302368px"/><path d="M22.82,13.24a.42.42,0,0,1,.43-.42" style="fill:#e2f2f2;stroke:#000;stroke-linecap:round;stroke-linejoin:round;stroke-width:1.6666666269302368px"/><path d="M23.25,13.67a.43.43,0,0,1-.43-.43" style="fill:#e2f2f2;stroke:#000;stroke-linecap:round;stroke-linejoin:round;stroke-width:1.6666666269302368px"/><path d="M23.68,13.24a.43.43,0,0,1-.43.43" style="fill:#e2f2f2;stroke:#000;stroke-linecap:round;stroke-linejoin:round;stroke-width:1.6666666269302368px"/><path d="M41.23,12.82a.42.42,0,0,1,.43.42" style="fill:#e2f2f2;stroke:#000;stroke-linecap:round;stroke-linejoin:round;stroke-width:1.6666666269302368px"/><path d="M40.8,13.24a.43.43,0,0,1,.43-.42" style="fill:#e2f2f2;stroke:#000;stroke-linecap:round;stroke-linejoin:round;stroke-width:1.6666666269302368px"/><path d="M41.23,13.67a.43.43,0,0,1-.43-.43" style="fill:#e2f2f2;stroke:#000;stroke-linecap:round;stroke-linejoin:round;stroke-width:1.6666666269302368px"/><path d="M41.66,13.24a.43.43,0,0,1-.43.43" style="fill:#e2f2f2;stroke:#000;stroke-linecap:round;stroke-linejoin:round;stroke-width:1.6666666269302368px"/></svg>
