<svg id="Layer_1" data-name="Layer 1" xmlns="http://www.w3.org/2000/svg" width="110" height="110" viewBox="0 0 60 60"><title>Business Intelligence Team</title><circle cx="30" cy="30" r="24" style="fill:#e2f2f2"/><rect x="11.06" y="35.95" width="37.69" height="4.59" style="fill:#e2f2f2"/><path d="M21.67,18.33a5.84,5.84,0,1,1-5.84,5.84A5.84,5.84,0,0,1,21.67,18.33Zm0,0v5.84H27.5M25,47.5a11.67,11.67,0,0,0,2.5-6.67M35,47.5a11.67,11.67,0,0,1-2.5-6.67m-10,6.67h15M10.83,35.83H49.17M12.5,12.5h35a1.67,1.67,0,0,1,1.67,1.67v25a1.66,1.66,0,0,1-1.67,1.66h-35a1.66,1.66,0,0,1-1.67-1.66v-25A1.67,1.67,0,0,1,12.5,12.5Zm20,9.17L35,18.33l5,4.17,4.17-5M42.5,30.83v-2.5m-3.33,2.5V27.5m-3.34,3.33v-5m-3.33,5v-2.5" style="fill:#e2f2f2"/><rect x="11.06" y="35.95" width="37.69" height="4.59" style="fill:#a1d3d3"/><path d="M21.67,18.33a5.84,5.84,0,1,1-5.84,5.84A5.84,5.84,0,0,1,21.67,18.33Zm0,0v5.84H27.5M25,47.5a11.67,11.67,0,0,0,2.5-6.67M35,47.5a11.67,11.67,0,0,1-2.5-6.67m-10,6.67h15M10.83,35.83H49.17M12.5,12.5h35a1.67,1.67,0,0,1,1.67,1.67v25a1.66,1.66,0,0,1-1.67,1.66h-35a1.66,1.66,0,0,1-1.67-1.66v-25A1.67,1.67,0,0,1,12.5,12.5Zm20,9.17L35,18.33l5,4.17,4.17-5M42.5,30.83v-2.5m-3.33,2.5V27.5m-3.34,3.33v-5m-3.33,5v-2.5" style="fill:none;stroke:#000;stroke-linecap:round;stroke-linejoin:round;stroke-width:1.6666666269302368px"/></svg>
