<svg id="Layer_1" data-name="Layer 1" xmlns="http://www.w3.org/2000/svg" width="110" height="110" viewBox="0 0 60 60"><title>Marketing Team</title><circle cx="30" cy="30" r="24" style="fill:#e2f2f2"/><polygon points="26.45 23.06 29.17 20.02 38.61 34.66 35.42 36.35 26.45 23.06" style="fill:#a1d3d3"/><line x1="34.74" y1="35.87" x2="26.37" y2="23.63" style="fill:none;stroke:#000;stroke-linecap:round;stroke-linejoin:round;stroke-width:1.6666666269302368px"/><path d="M12.3,38.9l2.94,4.43M28.58,19.14,39.77,36m-.58-.89L14.65,42.45l-1.76-2.67L29.17,20ZM27.42,38.63a3.72,3.72,0,1,1-5.62,4.89c-.1-.12-.2-.24-.29-.37L20,40.83M17.55,26.49l-1.18-1.24a.87.87,0,0,1,0-1.2l3.16-3.34-1.05-4.46a.87.87,0,0,1,.6-1l4.4-1.31,1.31-4.4a.87.87,0,0,1,1-.61L30.28,10l3.33-3.16a.87.87,0,0,1,1.2,0L38.14,10l4.47-1a.87.87,0,0,1,1,.6L45,13.9l4.4,1.31a.88.88,0,0,1,.6,1.05l-1,4.45L52.07,24a.87.87,0,0,1,0,1.2l-3.15,3.33L50,33a.88.88,0,0,1-.61,1L45,35.39l-1.31,4.4a.88.88,0,0,1-1.05.6l-4.46-1L34.83,42.5a.88.88,0,0,1-1.21,0L33,41.9" style="fill:none;stroke:#000;stroke-linecap:round;stroke-linejoin:round;stroke-width:1.6666666269302368px"/></svg>
