<svg id="Layer_1" data-name="Layer 1" xmlns="http://www.w3.org/2000/svg" width="120" height="120" viewBox="0 0 60 60"><title>Artboard 1</title><circle cx="30" cy="30" r="24" style="fill:#ffe121"/><path d="M40,19.17a10,10,0,0,0-20,0V22.5a10,10,0,0,0,20,0Z" style="fill:#fff"/><path d="M23.47,35.52a6.67,6.67,0,0,0,13.06,0" style="fill:#fff"/><path d="M32.5,26.67a4.17,4.17,0,0,1-5,0m5.83-4.59a.42.42,0,0,1,0,.84.42.42,0,0,1,0-.84m-6.66,0a.42.42,0,0,1,0,.84.42.42,0,0,1,0-.84M40,19.17a10,10,0,0,0-20,0V22.5a10,10,0,0,0,20,0Zm0,0c-2.21,0-6.76.56-10-3.34-3.24,3.9-7.79,3.34-10,3.34M41.67,17.5A1.67,1.67,0,0,0,40,19.17v6.66a1.67,1.67,0,0,0,1.67,1.67A3.33,3.33,0,0,0,45,24.17V20.83A3.33,3.33,0,0,0,41.67,17.5Zm-23.34,0A1.67,1.67,0,0,1,20,19.17v6.66a1.67,1.67,0,0,1-1.67,1.67A3.33,3.33,0,0,1,15,24.17V20.83A3.33,3.33,0,0,1,18.33,17.5Zm-1.6.41a13.33,13.33,0,0,1,26.54,0m5.06,26.26V42.32a3.3,3.3,0,0,0-1.28-2.63C44.83,38,39.55,35,30,35s-14.83,3-17,4.69a3.3,3.3,0,0,0-1.28,2.63v1.85m11.8-8.65a6.67,6.67,0,0,0,13.06,0" style="fill:none;stroke:#000;stroke-linecap:round;stroke-linejoin:round;stroke-width:1.6666666269302368px"/></svg>
