<svg id="Layer_1" data-name="Layer 1" xmlns="http://www.w3.org/2000/svg" width="110" height="110" viewBox="0 0 60 60"><title>Artboard 1</title><circle cx="30" cy="30" r="24" style="fill:#e2f2f2"/><path d="M43.21,6.43a2.5,2.5,0,0,0-3.53,0h0L24.53,21.58l-1.42,5,5-1.43L43.21,10a2.5,2.5,0,0,0,0-3.54Z" style="fill:#e2f2f2"/><rect x="37.15" y="29.16" width="5" height="8.33" rx="1.67" style="fill:#e2f2f2"/><path d="M25.56,15.83H13.81a3.33,3.33,0,0,0-3.33,3.33V40.83a3.33,3.33,0,0,0,3.33,3.33H45.48a3.33,3.33,0,0,0,3.33-3.33V19.16a3.33,3.33,0,0,0-3.33-3.33H42.06M22.23,19.16H15.48a1.67,1.67,0,0,0-1.67,1.67V39.16a1.67,1.67,0,0,0,1.67,1.67H43.81a1.67,1.67,0,0,0,1.67-1.67V20.83a1.67,1.67,0,0,0-1.67-1.67H38.73m-18,3.34h-1.9a1.66,1.66,0,0,0-1.66,1.66v6.67a1.66,1.66,0,0,0,1.66,1.67h10a1.67,1.67,0,0,0,1.67-1.67V27.5m0,0h1.67a1.66,1.66,0,0,1,1.66,1.66v6.67a1.66,1.66,0,0,1-1.66,1.67h-10a1.67,1.67,0,0,1-1.67-1.67V32.5m21.67-8.34a1.67,1.67,0,0,1-1.67,1.67H38.81a1.67,1.67,0,0,1,0-3.33h1.67A1.66,1.66,0,0,1,42.15,24.16Zm-3.34,5h1.67a1.67,1.67,0,0,1,1.67,1.67v5a1.67,1.67,0,0,1-1.67,1.67H38.81a1.66,1.66,0,0,1-1.66-1.67v-5A1.66,1.66,0,0,1,38.81,29.16Zm4.27-22.6a2.5,2.5,0,0,0-3.53,0h0L24.4,21.71,23,26.66l5-1.42L43.08,10.1a2.5,2.5,0,0,0,0-3.54Z" style="fill:#e2f2f2"/><path d="M43.21,6.43a2.5,2.5,0,0,0-3.53,0h0L24.53,21.58l-1.42,5,5-1.43L43.21,10a2.5,2.5,0,0,0,0-3.54Z" style="fill:#a1d3d3"/><rect x="37.15" y="29.16" width="5" height="8.33" rx="1.67" style="fill:#a1d3d3"/><path d="M25.56,15.83H13.81a3.33,3.33,0,0,0-3.33,3.33V40.83a3.33,3.33,0,0,0,3.33,3.33H45.48a3.33,3.33,0,0,0,3.33-3.33V19.16a3.33,3.33,0,0,0-3.33-3.33H42.06M22.23,19.16H15.48a1.67,1.67,0,0,0-1.67,1.67V39.16a1.67,1.67,0,0,0,1.67,1.67H43.81a1.67,1.67,0,0,0,1.67-1.67V20.83a1.67,1.67,0,0,0-1.67-1.67H38.73m-18,3.34h-1.9a1.66,1.66,0,0,0-1.66,1.66v6.67a1.66,1.66,0,0,0,1.66,1.67h10a1.67,1.67,0,0,0,1.67-1.67V27.5m0,0h1.67a1.66,1.66,0,0,1,1.66,1.66v6.67a1.66,1.66,0,0,1-1.66,1.67h-10a1.67,1.67,0,0,1-1.67-1.67V32.5m21.67-8.34a1.67,1.67,0,0,1-1.67,1.67H38.81a1.67,1.67,0,0,1,0-3.33h1.67A1.66,1.66,0,0,1,42.15,24.16Zm-3.34,5h1.67a1.67,1.67,0,0,1,1.67,1.67v5a1.67,1.67,0,0,1-1.67,1.67H38.81a1.66,1.66,0,0,1-1.66-1.67v-5A1.66,1.66,0,0,1,38.81,29.16Zm4.27-22.6a2.5,2.5,0,0,0-3.53,0h0L24.4,21.71,23,26.66l5-1.42L43.08,10.1a2.5,2.5,0,0,0,0-3.54Z" style="fill:none;stroke:#000;stroke-linecap:round;stroke-linejoin:round;stroke-width:1.6666666269302368px"/></svg>
