<svg id="Layer_1" data-name="Layer 1" xmlns="http://www.w3.org/2000/svg" width="120" height="120" viewBox="0 0 60 60"><title>Artboard 1</title><circle cx="30" cy="30" r="24" style="fill:#ffe121"/><path d="M33.14,33.17v1.67a2.5,2.5,0,0,1-2.5,2.5,4.17,4.17,0,0,0-4.17,4.16v4.17a2.5,2.5,0,0,1-5,0V33.17" style="fill:#fff"/><path d="M49.81,26.72a1.66,1.66,0,0,1-1.67,1.66,1.58,1.58,0,0,1-.92-.28l-2.41-1.6v-5l2.4-1.61a1.67,1.67,0,0,1,2.6,1.39Z" style="fill:#fff"/><path d="M39.81,31.5a1.67,1.67,0,0,1-1.67,1.67H21.47V19.84a1.67,1.67,0,0,1,1.67-1.67h15a1.67,1.67,0,0,1,1.67,1.67Zm0-10h5v5h-5ZM15,23.17h6.5v5H15m34.84-1.45a1.66,1.66,0,0,1-1.67,1.66,1.58,1.58,0,0,1-.92-.28l-2.41-1.6v-5l2.4-1.61a1.67,1.67,0,0,1,2.6,1.39ZM14.46,29a1.67,1.67,0,0,1-1.43.81h-.72a.85.85,0,0,1-.84-.84V22.34a.85.85,0,0,1,.84-.84H13a1.67,1.67,0,0,1,1.43.81l1,1.65a3.35,3.35,0,0,1,0,3.43Zm18.68,4.14v1.67a2.5,2.5,0,0,1-2.5,2.5,4.17,4.17,0,0,0-4.17,4.16v4.17a2.5,2.5,0,0,1-5,0V33.17M27.31,21.5a2.5,2.5,0,1,1-2.5,2.5A2.5,2.5,0,0,1,27.31,21.5Zm9.16,8.34H33.14" style="fill:none;stroke:#000;stroke-linecap:round;stroke-linejoin:round;stroke-width:1.6666666269302368px"/></svg>
