<svg id="Layer_1" data-name="Layer 1" xmlns="http://www.w3.org/2000/svg" width="120" height="120" viewBox="0 0 60 60"><title>Artboard 1</title><circle cx="30" cy="30" r="24" style="fill:#ffe121"/><circle cx="40.24" cy="42" r="7.55" style="fill:#fff"/><path d="M21,42.79h8.34m-16.67-10h20m-6.67,5v2.5a2.5,2.5,0,0,1-2.5,2.5m22.5-10V16.12a1.66,1.66,0,0,0-1.66-1.67h-30a1.67,1.67,0,0,0-1.67,1.67v20a1.67,1.67,0,0,0,1.67,1.67h15m10.88-3.34A7.55,7.55,0,1,1,32.69,42,7.55,7.55,0,0,1,40.24,34.45ZM51,52.79l-5.44-5.45" style="fill:none;stroke:#000;stroke-linecap:round;stroke-linejoin:round;stroke-width:1.6666666269302368px"/></svg>
