<svg viewBox="0 0 40 40" style="height: 40px; width: 40px;"><g transform="scale(1.6666666666666667,1.6666666666666667)"><path style="stroke: rgb(0, 0, 0); fill: none; stroke-width: 1px; stroke-linecap: round; stroke-linejoin: round;" d="M23.5,23.5L19,19 M17.047,21.4c0.105,0.255,0.398,0.377,0.653,0.272c0.121-0.05,0.218-0.145,0.269-0.266L19,19 l2.406-1.031c0.254-0.109,0.372-0.402,0.263-0.656c-0.051-0.12-0.148-0.216-0.269-0.266l-6.29-2.59 c-0.255-0.105-0.548,0.016-0.653,0.271c-0.05,0.122-0.05,0.259,0,0.382L17.047,21.4z M11,12.5c0.552,0,1,0.448,1,1s-0.448,1-1,1 s-1-0.448-1-1S10.448,12.5,11,12.5z M7,12.5c0.552,0,1,0.448,1,1s-0.448,1-1,1s-1-0.448-1-1S6.448,12.5,7,12.5z M14,4l-2.5,7.5h-5 L5,6.5h8.167 M12.771,17.887C8.143,19.69,2.929,17.4,1.126,12.772S1.613,2.929,6.241,1.126s9.842,0.487,11.645,5.115 c0.87,2.232,0.813,4.718-0.157,6.908"></path></g></svg>
