<svg fill="#1C21FF" width="100%" height="100%" xmlns="http://www.w3.org/2000/svg" shape-rendering="optimizeQuality">
  <pattern shape-rendering="optimizeQuality" id="symbols" x="0" y="0" width="300" height="300" patternUnits="userSpaceOnUse">
      <path d="M67.28,19.65a7.79,7.79,0,1,0-7.79-7.78A7.79,7.79,0,0,0,67.28,19.65Zm0-12.57a4.79,4.79,0,1,1-4.79,4.79A4.79,4.79,0,0,1,67.28,7.08Z">
      </path>
      <path d="M121.58,46.28a11.6,11.6,0,1,0,11.59,11.59A11.6,11.6,0,0,0,121.58,46.28Zm0,20.19a8.6,8.6,0,1,1,8.59-8.6A8.6,8.6,0,0,1,121.58,66.47Z">
      </path>
      <path d="M63.83,114.73H54.26v-9.57a1.5,1.5,0,0,0-3,0v9.57H41.69a1.5,1.5,0,0,0,0,3h9.57v9.56a1.5,1.5,0,1,0,3,0v-9.56h9.57a1.5,1.5,0,0,0,0-3Z">
      </path>
      <path d="M156,97a1.5,1.5,0,0,0-1.5-1.5H131.67a1.5,1.5,0,0,0,0,3h22.79A1.5,1.5,0,0,0,156,97Z">
      </path>
      <path d="M69.53,69.37a1.5,1.5,0,0,0,1.5,1.5H86.31a1.5,1.5,0,0,0,0-3H71A1.5,1.5,0,0,0,69.53,69.37Z">
      </path>
      <path d="M38.08,65.23A7.79,7.79,0,1,0,30.3,73,7.79,7.79,0,0,0,38.08,65.23Zm-12.57,0A4.79,4.79,0,1,1,30.3,70,4.8,4.8,0,0,1,25.51,65.23Z">
      </path>
      <path d="M276,7.63a11.6,11.6,0,1,0,11.59,11.59A11.61,11.61,0,0,0,276,7.63Zm0,20.19a8.6,8.6,0,1,1,8.59-8.6A8.61,8.61,0,0,1,276,27.82Z">
      </path>
      <path d="M19.48,173.91A11.55,11.55,0,0,0,0,165.46v5a8.6,8.6,0,1,1,0,6.79v5a11.55,11.55,0,0,0,19.48-8.44Z">
      </path>
      <path d="M23.4,219a1.5,1.5,0,1,0,0-3H.61a1.4,1.4,0,0,0-.61.14v2.72a1.4,1.4,0,0,0,.61.14Z">
      </path>
      <path d="M174.11,49.39a7.79,7.79,0,1,0-7.78-7.79A7.8,7.8,0,0,0,174.11,49.39Zm0-12.57a4.79,4.79,0,1,1-4.78,4.78A4.79,4.79,0,0,1,174.11,36.82Z">
      </path>
      <path d="M244.27,99.48H234.7V89.91a1.5,1.5,0,0,0-3,0v9.57h-9.57a1.5,1.5,0,0,0,0,3h9.57v9.57a1.5,1.5,0,1,0,3,0v-9.57h9.57a1.5,1.5,0,0,0,0-3Z">
      </path>
      <path d="M233.2,29.87a1.5,1.5,0,0,0,1.5-1.5V5.58a1.5,1.5,0,0,0-3,0V28.37A1.5,1.5,0,0,0,233.2,29.87Z">
      </path>
      <path d="M193.5,65.51h15.28a1.5,1.5,0,0,0,0-3H193.5a1.5,1.5,0,1,0,0,3Z">
      </path>
      <path d="M85.16,217.46a11.6,11.6,0,1,0-11.6,11.59A11.61,11.61,0,0,0,85.16,217.46Zm-11.6,8.59a8.59,8.59,0,1,1,8.6-8.59A8.6,8.6,0,0,1,73.56,226.05Z">
      </path>
      <path d="M259.87,142a7.79,7.79,0,1,0-7.79-7.78A7.79,7.79,0,0,0,259.87,142Zm0-12.57a4.79,4.79,0,1,1-4.79,4.79A4.79,4.79,0,0,1,259.87,129.4Z">
      </path>
      <path d="M296.29,173.91a11.51,11.51,0,0,0,3.71,8.44v-5a8.47,8.47,0,0,1,0-6.79v-5A11.53,11.53,0,0,0,296.29,173.91Z">
      </path>
      <path d="M264.65,230.76h-9.57v-9.57a1.5,1.5,0,0,0-3,0v9.57h-9.56a1.5,1.5,0,1,0,0,3h9.56v9.57a1.5,1.5,0,0,0,3,0v-9.57h9.57a1.5,1.5,0,0,0,0-3Z">
      </path>
      <path d="M299.11,217.46a1.49,1.49,0,0,0,.89,1.36V216.1A1.49,1.49,0,0,0,299.11,217.46Z">
      </path>
      <path d="M257.33,183.9a1.5,1.5,0,1,0,0,3h15.29a1.5,1.5,0,0,0,0-3Z">
      </path>
      <path d="M111.49,142a7.79,7.79,0,1,0-7.79-7.78A7.79,7.79,0,0,0,111.49,142Zm0-12.57a4.79,4.79,0,1,1-4.79,4.79A4.79,4.79,0,0,1,111.49,129.4Z">
      </path>
      <path d="M227,148.5H211.67a1.5,1.5,0,1,0,0,3H227a1.5,1.5,0,0,0,0-3Z">
      </path>
      <path d="M93.2,274.17H87.81v-5.39a1.5,1.5,0,0,0-3,0v5.39H79.42a1.5,1.5,0,0,0,0,3h5.39v5.39a1.5,1.5,0,0,0,3,0v-5.39H93.2a1.5,1.5,0,0,0,0-3Z">
      </path>
      <path d="M205.24,204A7.79,7.79,0,1,0,213,196.2,7.79,7.79,0,0,0,205.24,204ZM213,199.2a4.79,4.79,0,1,1-4.78,4.78A4.79,4.79,0,0,1,213,199.2Z">
      </path>
      <path d="M220.52,260.9h-5.39v-5.39a1.5,1.5,0,0,0-3,0v5.39h-5.39a1.5,1.5,0,0,0,0,3h5.39v5.4a1.5,1.5,0,0,0,3,0v-5.4h5.39a1.5,1.5,0,0,0,0-3Z">
      </path>
      <path d="M167,246.69a11.6,11.6,0,1,0,11.59,11.6A11.61,11.61,0,0,0,167,246.69Zm0,20.19a8.6,8.6,0,1,1,8.59-8.59A8.6,8.6,0,0,1,167,266.88Z">
      </path>
      <path d="M119.74,188h-9.57V178.4a1.5,1.5,0,0,0-3,0V188H97.6a1.5,1.5,0,0,0,0,3h9.57v9.56a1.5,1.5,0,0,0,3,0V191h9.57a1.5,1.5,0,0,0,0-3Z">
      </path>
      <path d="M157,223V207.73a1.5,1.5,0,0,0-3,0V223a1.5,1.5,0,0,0,3,0Z">
      </path>
      <path d="M159.67,174.79a7.79,7.79,0,1,0-7.79-7.78A7.79,7.79,0,0,0,159.67,174.79Zm0-12.57a4.79,4.79,0,1,1-4.79,4.79A4.79,4.79,0,0,1,159.67,162.22Z">
      </path>
      <path d="M132.59,9.76H127.2V4.37a1.5,1.5,0,1,0-3,0V9.76h-5.39a1.5,1.5,0,0,0,0,3h5.39v5.39a1.5,1.5,0,0,0,3,0V12.76h5.39a1.5,1.5,0,0,0,0-3Z">
      </path>
      <path d="M28.05,7.73a1.5,1.5,0,0,0-1.5-1.5H11.27a1.5,1.5,0,0,0,0,3H26.55A1.5,1.5,0,0,0,28.05,7.73Z">
      </path>
      <path d="M265,67.33h5.39v5.39a1.5,1.5,0,1,0,3,0V67.33h5.39a1.5,1.5,0,0,0,0-3h-5.39V58.94a1.5,1.5,0,0,0-3,0v5.39H265a1.5,1.5,0,0,0,0,3Z">
      </path>
      <path d="M4.68,110.55H0v3H4.68a1.5,1.5,0,0,0,0-3Z">
      </path>
      <path d="M207.1,0a8.48,8.48,0,0,1,1.23,4.37,8.59,8.59,0,1,1-17.18,0A8.57,8.57,0,0,1,192.38,0H189a11.36,11.36,0,0,0-.87,4.37,11.59,11.59,0,1,0,23.18,0A11.36,11.36,0,0,0,210.46,0Z">
      </path>
      <path d="M201.24,116.23a11.6,11.6,0,1,0-11.59,11.59A11.61,11.61,0,0,0,201.24,116.23Zm-20.19,0a8.6,8.6,0,1,1,8.6,8.59A8.61,8.61,0,0,1,181.05,116.23Z">
      </path>
      <path d="M44.82,259.37H35.25V249.8a1.5,1.5,0,0,0-3,0v9.57H22.68a1.5,1.5,0,0,0,0,3h9.57v9.57a1.5,1.5,0,0,0,3,0v-9.57h9.57a1.5,1.5,0,0,0,0-3Z">
      </path>
      <path d="M299.29,110.55v-5.39a1.5,1.5,0,0,0-3,0v5.39H290.9a1.5,1.5,0,0,0,0,3h5.39v5.39a1.5,1.5,0,0,0,3,0v-5.39H300v-3Z">
      </path>
      <path d="M283.27,274.17H260.49a1.5,1.5,0,0,0,0,3h22.78a1.5,1.5,0,0,0,0-3Z">
      </path>
      <path d="M123.46,249.51A1.5,1.5,0,0,0,122,251V273.8a1.5,1.5,0,0,0,3,0V251A1.5,1.5,0,0,0,123.46,249.51Z">
      </path>
      <path d="M61,159.22A7.79,7.79,0,1,0,68.78,167,7.8,7.8,0,0,0,61,159.22Zm0,12.57A4.79,4.79,0,1,1,65.78,167,4.79,4.79,0,0,1,61,171.79Z">
      </path>
      <path d="M199.74,292.78A11.59,11.59,0,0,0,189,300h3.36a8.53,8.53,0,0,1,14.72,0h3.36A11.6,11.6,0,0,0,199.74,292.78Z">
      </path>
    </pattern>
  <rect x="0" y="0" width="100%" height="100%" fill="url(#symbols)" />
</svg>