<svg fill="#1C21FF" width="100%" height="100%" xmlns="http://www.w3.org/2000/svg" shape-rendering="optimizeQuality">
  <pattern shape-rendering="optimizeQuality" id="waves" x="0" y="0" width="120" height="120" patternUnits="userSpaceOnUse">
    <path d="M18.4056,4.943c.3925.05.8489.1061,1.2989.15a25.13,25.13,0,0,0,6.6077-.0821c.2428-.0416.4823-.0951.7141-.1472.097-.0217.194-.0435.2919-.0645a78.7511,78.7511,0,0,0,8.745-2.6039C38.3593,1.4131,40.7014.6165,43.1116,0H40.0163C38.5867.4423,37.18.9205,35.79,1.394a78.0888,78.0888,0,0,1-8.65,2.5778c-.1.0212-.2.0438-.2991.0661-.2312.0519-.45.1006-.6711.1384a24.32,24.32,0,0,1-6.383.0744c-.4391-.043-.8886-.0987-1.2753-.1477A48.7831,48.7831,0,0,1,8.0028,1.1791C6.9007.7822,5.7847.3806,4.6473,0H1.7989c2.037.5788,3.9979,1.2843,5.917,1.9756A50.1521,50.1521,0,0,0,18.4056,4.943Z"/>
      <path d="M97.43,1.3323c-4.9607,1.5993-9.6474,3.1066-14.8288,3.09-.1119,0-.3668.0017-.6857.0042-.7411.0058-1.9814.0159-2.3193-.0017A40.9131,40.9131,0,0,1,71.0938,2.992c-1.7163-.5085-3.4209-1.08-5.07-1.6338C64.6233.8883,63.2411.4247,61.862,0H58.765c2.3228.595,4.63,1.369,6.99,2.161,1.6555.5557,3.3676,1.13,5.0968,1.6424A41.1929,41.1929,0,0,0,79.5524,5.27c.16.0082.4743.011.8486.011.4754,0,1.0473-.0044,1.5214-.0083.3139-.0027.565-.0044.6755-.0041,5.3181.0165,10.0652-1.51,15.092-3.1306C100.0276,1.3844,102.4342.61,104.9155,0h-3.2269C100.2425.4261,98.824.8828,97.43,1.3323Z"/>
      <path d="M105.9336,6.3922c-2.9471.6488-5.7718,1.5593-8.5036,2.44-4.9276,1.5889-9.5837,3.09-14.7252,3.09l-.1036,0c-.1122,0-.3668.0016-.6857.0041-.7411.006-1.9814.016-2.3193-.0017a40.9244,40.9244,0,0,1-8.5024-1.4323c-1.7163-.5085-3.4209-1.0807-5.07-1.6338C60.1805,6.8973,54.661,5.0461,48.3534,5.6789A56.43,56.43,0,0,0,35.79,8.8941a78.0878,78.0878,0,0,1-8.65,2.5775c-.1.0215-.2.0438-.2991.0661-.2312.0519-.45.1009-.6711.1384a24.32,24.32,0,0,1-6.383.0744c-.4391-.043-.8886-.0986-1.2753-.1474A48.7839,48.7839,0,0,1,8.0028,8.6789,70.03,70.03,0,0,0,0,6.1612V7.03A70.8627,70.8627,0,0,1,7.7159,9.4756a50.1464,50.1464,0,0,0,10.69,2.9675c.3925.05.8489.1061,1.2989.15a25.1,25.1,0,0,0,6.6077-.0821c.2428-.0413.4823-.0951.7141-.1469.097-.0217.194-.0435.2919-.0645a78.752,78.752,0,0,0,8.745-2.6042A55.81,55.81,0,0,1,48.438,6.5214C54.5645,5.9049,60,7.73,65.755,9.6609c1.6555.5556,3.3676,1.13,5.0968,1.6423A41.1929,41.1929,0,0,0,79.5524,12.77c.16.0082.4749.0113.85.0113.4754,0,1.0468-.0047,1.52-.0086.3141-.0024.5652-.0035.6755-.0041,5.3181.0232,10.0652-1.51,15.092-3.1306,2.7128-.8745,5.5179-1.7791,8.4256-2.419a29.4619,29.4619,0,0,1,12.11-.5611c.5989.1086,1.19.2339,1.7744.3723v-.869c-.535-.1235-1.0751-.2373-1.6233-.3365A30.2493,30.2493,0,0,0,105.9336,6.3922Z"/>
      <path d="M105.9336,13.8923c-2.9471.6487-5.7718,1.5593-8.5036,2.44-4.9607,1.6-9.6452,3.1108-14.8288,3.09-.1122,0-.3668.0016-.6857.0041-.7411.006-1.9814.016-2.3193-.0017a40.9244,40.9244,0,0,1-8.5024-1.4323c-1.7163-.5085-3.4209-1.0807-5.07-1.6338-5.8437-1.9609-11.3632-3.8122-17.6708-3.1794A56.4354,56.4354,0,0,0,35.79,16.3942a78.0663,78.0663,0,0,1-8.65,2.5775c-.1.0215-.2.0438-.2991.0662-.2312.0518-.45.1008-.6711.1383a24.32,24.32,0,0,1-6.383.0744c-.4391-.043-.8886-.0986-1.2753-.1474A48.7839,48.7839,0,0,1,8.0028,16.179,70.05,70.05,0,0,0,0,13.6613v.869a70.8628,70.8628,0,0,1,7.7159,2.4455,50.1521,50.1521,0,0,0,10.69,2.9674c.3925.05.8489.1062,1.2989.15a25.105,25.105,0,0,0,6.6077-.0822c.2428-.0413.4823-.095.7141-.1469.097-.0217.194-.0435.2919-.0645a78.752,78.752,0,0,0,8.745-2.6042A55.81,55.81,0,0,1,48.438,14.0215C54.5645,13.4056,60,15.23,65.755,17.161c1.6555.5556,3.3676,1.13,5.0968,1.6423A41.1865,41.1865,0,0,0,79.5524,20.27c.16.0083.4749.0113.85.0113.4754,0,1.0468-.0047,1.52-.0086.2858-.0021.5192-.0041.6421-.0041l.1409,0c5.2737,0,9.9919-1.5211,14.9845-3.1309,2.7128-.8745,5.5179-1.779,8.4256-2.419a29.4584,29.4584,0,0,1,12.11-.5611c.5989.1085,1.19.234,1.7744.3723v-.869c-.535-.1234-1.0751-.2373-1.6233-.3365A30.2493,30.2493,0,0,0,105.9336,13.8923Z"/>
      <path d="M105.9336,21.3924c-2.9471.6485-5.7718,1.5591-8.5036,2.44-4.9607,1.5994-9.6474,3.1111-14.8288,3.09-.1119,0-.3668.0013-.6857.0041-.7411.0058-1.9814.016-2.3193-.0017a40.9065,40.9065,0,0,1-8.5024-1.4326c-1.7163-.5084-3.4209-1.08-5.07-1.6338-5.8437-1.9609-11.3632-3.8124-17.6708-3.1794A56.4628,56.4628,0,0,0,35.79,23.8941a78.0885,78.0885,0,0,1-8.65,2.5777c-.1.0213-.2.0438-.2991.0662-.2312.0518-.45.1006-.6711.1383a24.3243,24.3243,0,0,1-6.383.0744c-.4391-.0429-.8886-.0986-1.2753-.1477A48.7774,48.7774,0,0,1,8.0028,23.6791,69.9306,69.9306,0,0,0,0,21.1614v.869a70.7967,70.7967,0,0,1,7.7159,2.4452,50.1462,50.1462,0,0,0,10.69,2.9674c.3925.05.8489.1062,1.2989.15a25.1307,25.1307,0,0,0,6.6077-.0822c.2428-.0416.4823-.095.7141-.1471.097-.0218.194-.0436.2919-.0645a78.7728,78.7728,0,0,0,8.745-2.604A55.7882,55.7882,0,0,1,48.438,21.5214c6.1259-.616,11.562,1.2085,17.317,3.14,1.6555.5556,3.3676,1.13,5.0968,1.6423A41.1865,41.1865,0,0,0,79.5524,27.77c.16.0083.4743.011.8486.011.4754,0,1.0473-.0044,1.5214-.0082.3139-.0028.565-.0044.6755-.0042,5.3181.016,10.0652-1.51,15.092-3.1306,2.7128-.8748,5.5179-1.779,8.4256-2.419a29.4661,29.4661,0,0,1,12.11-.5614c.5989.1086,1.19.2343,1.7744.3726v-.869c-.535-.1235-1.0751-.2373-1.6233-.3368A30.255,30.255,0,0,0,105.9336,21.3924Z"/>
      <path d="M105.9336,28.8922c-2.9471.6488-5.7718,1.5594-8.5036,2.44-4.9607,1.6-9.6452,3.11-14.8288,3.09-.1122,0-.3668.0016-.6857.0041-.7411.0061-1.9814.0163-2.3193-.0016a40.9251,40.9251,0,0,1-8.5024-1.4324c-1.7163-.5085-3.4209-1.0806-5.07-1.6338-5.8437-1.9609-11.3632-3.8124-17.6708-3.1794A56.43,56.43,0,0,0,35.79,31.3942a78.0878,78.0878,0,0,1-8.65,2.5775c-.1.0214-.2.0438-.2991.0661-.2312.0518-.45.1009-.6711.1384a24.3243,24.3243,0,0,1-6.383.0744c-.4391-.043-.8886-.0987-1.2753-.1475A48.7725,48.7725,0,0,1,8.0028,31.1789,70.03,70.03,0,0,0,0,28.6613V29.53a70.8628,70.8628,0,0,1,7.7159,2.4455,50.1581,50.1581,0,0,0,10.69,2.9675c.3925.05.8489.1061,1.2989.15a25.1089,25.1089,0,0,0,6.6077-.0821c.2428-.0414.4823-.0951.7141-.1469.097-.0218.194-.0436.2919-.0645a78.7734,78.7734,0,0,0,8.745-2.6042,55.8045,55.8045,0,0,1,12.3748-3.174C54.5645,28.4049,60,30.23,65.755,32.1609c1.6555.5556,3.3676,1.13,5.0968,1.6423A41.18,41.18,0,0,0,79.5524,35.27c.16.0083.4749.0113.85.0113.4754,0,1.0468-.0046,1.52-.0085.3141-.0025.5652-.0039.6755-.0042,5.3181.0229,10.0652-1.51,15.092-3.1306,2.7128-.8745,5.5179-1.779,8.4256-2.419a29.46,29.46,0,0,1,12.11-.5611c.5989.1086,1.19.234,1.7744.3723v-.8689c-.535-.1235-1.0751-.2374-1.6233-.3366A30.2527,30.2527,0,0,0,105.9336,28.8922Z"/>
      <path d="M105.9336,36.3923c-2.9471.6485-5.7718,1.5591-8.5036,2.44-4.9276,1.5888-9.584,3.09-14.7255,3.09l-.1033,0c-.1119,0-.3668.0017-.6857.0041-.7411.0058-1.9814.016-2.3193-.0016a40.9131,40.9131,0,0,1-8.5024-1.4326c-1.7163-.5085-3.4209-1.08-5.07-1.6338-5.8437-1.9607-11.3632-3.8125-17.6708-3.1794A56.4572,56.4572,0,0,0,35.79,38.894a78.0888,78.0888,0,0,1-8.65,2.5778c-.1.0212-.2.0438-.2991.0661-.2312.0518-.45.1006-.6711.1384a24.3329,24.3329,0,0,1-6.383.0744c-.4391-.043-.8886-.0987-1.2753-.1477A48.7777,48.7777,0,0,1,8.0028,38.679,69.9107,69.9107,0,0,0,0,36.1614v.869a70.7747,70.7747,0,0,1,7.7159,2.4451,50.1464,50.1464,0,0,0,10.69,2.9675c.3925.05.8489.1061,1.2989.15a25.1217,25.1217,0,0,0,6.6077-.0821c.2428-.0417.4823-.0951.7141-.1472.097-.0218.194-.0436.2919-.0645a78.7725,78.7725,0,0,0,8.745-2.6039A55.7828,55.7828,0,0,1,48.438,36.5213c6.1259-.616,11.562,1.2085,17.317,3.14,1.6555.5556,3.3676,1.13,5.0968,1.6424A41.1859,41.1859,0,0,0,79.5524,42.77c.16.0083.4743.0111.8486.0111.4754,0,1.0473-.0045,1.5214-.0083.2861-.0025.52-.0044.6427-.0044.0557,0,.0945,0,.14,0,5.2737,0,9.9919-1.5211,14.9845-3.1307,2.7128-.8747,5.5179-1.779,8.4256-2.419a29.4661,29.4661,0,0,1,12.11-.5614c.5989.1086,1.19.2343,1.7744.3727v-.869c-.535-.1235-1.0751-.2374-1.6233-.3368A30.2565,30.2565,0,0,0,105.9336,36.3923Z"/>
      <path d="M105.9336,43.8921c-2.9471.6488-5.7718,1.5594-8.5036,2.44-4.9607,1.6-9.6452,3.108-14.8288,3.09-.1122,0-.3668.0017-.6857.0041-.7411.0061-1.9814.0163-2.3193-.0016a40.931,40.931,0,0,1-8.5024-1.4323c-1.7163-.5085-3.4209-1.0807-5.07-1.6338-5.8437-1.961-11.3632-3.8125-17.6708-3.1795A56.4355,56.4355,0,0,0,35.79,46.3941a78.0878,78.0878,0,0,1-8.65,2.5775c-.1.0215-.2.0438-.2991.0661-.2312.0518-.45.1009-.6711.1384a24.32,24.32,0,0,1-6.383.0744c-.4391-.043-.8886-.0987-1.2753-.1475A48.7779,48.7779,0,0,1,8.0028,46.1789,70.03,70.03,0,0,0,0,43.6612v.869a70.8191,70.8191,0,0,1,7.7159,2.4455,50.1579,50.1579,0,0,0,10.69,2.9674c.3925.05.8489.1061,1.2989.15a25.1175,25.1175,0,0,0,6.6077-.0821c.2428-.0413.4823-.0951.7141-.1469.097-.0218.194-.0435.2919-.0645a78.752,78.752,0,0,0,8.745-2.6042A55.7988,55.7988,0,0,1,48.438,44.0214C54.5645,43.4049,60,45.23,65.755,47.1609c1.6555.5556,3.3676,1.13,5.0968,1.6423A41.1929,41.1929,0,0,0,79.5524,50.27c.16.0083.4749.0113.85.0113.4754,0,1.0468-.0047,1.52-.0086.3141-.0025.5652-.0041.6755-.0041,5.3181.0157,10.0652-1.51,15.092-3.1306,2.7128-.8745,5.5179-1.7791,8.4256-2.419a29.46,29.46,0,0,1,12.11-.5612c.5989.1086,1.19.234,1.7744.3724v-.869c-.535-.1235-1.0751-.2373-1.6233-.3366A30.2579,30.2579,0,0,0,105.9336,43.8921Z"/>
      <path d="M105.9336,51.3923c-2.9471.6484-5.7718,1.5591-8.5036,2.44-4.9607,1.5993-9.6474,3.11-14.8288,3.09-.1111,0-.3663.0014-.6852.0042-.7411.006-1.9819.016-2.32-.0017a40.9131,40.9131,0,0,1-8.5024-1.4326c-1.7163-.5085-3.4209-1.08-5.07-1.6338-5.8437-1.9609-11.3632-3.8125-17.6708-3.1794A56.4626,56.4626,0,0,0,35.79,53.8939a78.0888,78.0888,0,0,1-8.65,2.5778q-.1506.0323-.3007.0664c-.2307.0518-.4487.1006-.6695.1381a24.3067,24.3067,0,0,1-6.383.0744c-.444-.0435-.8911-.099-1.2753-.1475a48.7417,48.7417,0,0,1-10.51-2.9244A69.9335,69.9335,0,0,0,0,51.1613v.869a70.764,70.764,0,0,1,7.7145,2.4452,50.1283,50.1283,0,0,0,10.6911,2.9677c.39.049.8439.1053,1.2989.15a25.08,25.08,0,0,0,6.6074-.0821c.2429-.0413.4818-.0948.7128-.1469.0975-.0218.1951-.0436.2935-.0648a78.7511,78.7511,0,0,0,8.745-2.6039A55.7883,55.7883,0,0,1,48.438,51.5212C54.5639,50.9047,60,52.73,65.755,54.661c1.6555.5556,3.3676,1.13,5.0968,1.6423a41.1935,41.1935,0,0,0,8.7,1.4668c.16.0082.4755.011.8506.011.4751,0,1.0467-.0044,1.52-.0083.3142-.0027.5656-.0041.675-.0041,5.3181.0223,10.0652-1.51,15.092-3.1306,2.7128-.8748,5.5179-1.7791,8.4256-2.419a29.4643,29.4643,0,0,1,12.11-.5614c.5989.1085,1.19.2342,1.7744.3726v-.869c-.535-.1235-1.0751-.2373-1.6233-.3368A30.26,30.26,0,0,0,105.9336,51.3923Z"/>
      <path d="M105.9336,58.8923c-2.9471.6486-5.7718,1.5591-8.5036,2.44-4.9607,1.5994-9.6474,3.1047-14.8288,3.09-.1119,0-.3668.0014-.6857.0042-.7411.006-1.9814.0159-2.3193-.0017a40.9065,40.9065,0,0,1-8.5024-1.4326c-1.7163-.5085-3.4209-1.08-5.07-1.6338-5.8437-1.9607-11.3632-3.8122-17.6708-3.1794A56.4572,56.4572,0,0,0,35.79,61.394a78.0888,78.0888,0,0,1-8.65,2.5778c-.1.0212-.2.0438-.2991.0661-.2312.0519-.45.1006-.6711.1384a24.3329,24.3329,0,0,1-6.383.0744c-.4391-.043-.8886-.0987-1.2753-.1477A48.7774,48.7774,0,0,1,8.0028,61.1791,69.9108,69.9108,0,0,0,0,58.6614v.869a70.7967,70.7967,0,0,1,7.7159,2.4452,50.1521,50.1521,0,0,0,10.69,2.9674c.3925.05.8489.1061,1.2989.15a25.126,25.126,0,0,0,6.6077-.0821c.2428-.0416.4823-.0951.7141-.1472.097-.0217.194-.0435.2919-.0645a78.7511,78.7511,0,0,0,8.745-2.6039A55.7938,55.7938,0,0,1,48.438,59.0213C54.5639,58.4051,60,60.23,65.755,62.161c1.6555.5557,3.3676,1.13,5.0968,1.6424A41.1929,41.1929,0,0,0,79.5524,65.27c.16.0082.4743.011.8486.011.4754,0,1.0473-.0044,1.5214-.0083.2861-.0024.52-.0044.6427-.0044.0557,0,.0945.0006.14,0,5.2737,0,9.9919-1.5211,14.9845-3.1306,2.7128-.8748,5.5179-1.7791,8.4256-2.419a29.4645,29.4645,0,0,1,12.11-.5615c.5989.1087,1.19.2343,1.7744.3727v-.869c-.535-.1235-1.0751-.2373-1.6233-.3368A30.2565,30.2565,0,0,0,105.9336,58.8923Z"/>
      <path d="M105.9336,66.3922c-2.9471.6488-5.7718,1.5594-8.5036,2.44-4.9607,1.6-9.6452,3.1161-14.8288,3.09-.1122,0-.3668.0016-.6857.0041-.7411.006-1.9814.0163-2.3193-.0016a40.9317,40.9317,0,0,1-8.5024-1.4324c-1.7163-.5085-3.4209-1.0807-5.07-1.6338-5.8437-1.9609-11.3632-3.8127-17.6708-3.1794A56.4354,56.4354,0,0,0,35.79,68.8941a78.0878,78.0878,0,0,1-8.65,2.5775c-.1.0215-.2.0438-.2991.0662-.2312.0518-.45.1008-.6711.1383a24.32,24.32,0,0,1-6.383.0744c-.4391-.043-.8886-.0986-1.2753-.1474A48.7839,48.7839,0,0,1,8.0028,68.6789,70.05,70.05,0,0,0,0,66.1612v.869a70.8628,70.8628,0,0,1,7.7159,2.4455,50.1521,50.1521,0,0,0,10.69,2.9674c.3925.05.8489.1061,1.2989.15a25.1179,25.1179,0,0,0,6.6077-.0822c.2428-.0413.4823-.0951.7141-.1469.097-.0217.194-.0435.2919-.0645a78.752,78.752,0,0,0,8.745-2.6042A55.81,55.81,0,0,1,48.438,66.5214C54.5645,65.9049,60,67.73,65.755,69.6609c1.6555.5556,3.3676,1.13,5.0968,1.6423A41.1865,41.1865,0,0,0,79.5524,72.77c.16.0083.4749.0113.85.0113.4754,0,1.0468-.0047,1.52-.0086.3141-.0024.5652-.0041.6755-.0041,5.3181.0155,10.0652-1.51,15.092-3.1306,2.7128-.8745,5.5179-1.779,8.4256-2.419a29.4584,29.4584,0,0,1,12.11-.5611c.5989.1086,1.19.2339,1.7744.3723v-.869c-.535-.1234-1.0751-.2373-1.6233-.3365A30.2493,30.2493,0,0,0,105.9336,66.3922Z"/>
      <path d="M105.9336,73.8923c-2.9471.6485-5.7718,1.5591-8.5036,2.44-4.9607,1.5994-9.6474,3.115-14.8288,3.09-.1119,0-.3668.0016-.6857.0041-.7411.0058-1.9814.016-2.3193-.0017a40.9058,40.9058,0,0,1-8.5024-1.4325c-1.7163-.5086-3.4209-1.08-5.07-1.6339-5.8437-1.9606-11.3632-3.8122-17.6708-3.1794A56.4628,56.4628,0,0,0,35.79,76.394a78.067,78.067,0,0,1-8.65,2.5777c-.1.0213-.2.0438-.2991.0662-.2312.0518-.45.1006-.6711.1383a24.3243,24.3243,0,0,1-6.383.0744c-.4391-.0429-.8886-.0986-1.2753-.1477A48.7774,48.7774,0,0,1,8.0028,76.179,69.9306,69.9306,0,0,0,0,73.6613v.869a70.7967,70.7967,0,0,1,7.7159,2.4452,50.1523,50.1523,0,0,0,10.69,2.9675c.3925.05.8489.1061,1.2989.15a25.1307,25.1307,0,0,0,6.6077-.0822c.2428-.0416.4823-.095.7141-.1471.097-.0218.194-.0436.2919-.0645a78.7728,78.7728,0,0,0,8.745-2.604A55.7882,55.7882,0,0,1,48.438,74.0213C54.5639,73.405,60,75.23,65.755,77.161c1.6555.5556,3.3676,1.13,5.0968,1.6423A41.1865,41.1865,0,0,0,79.5524,80.27c.16.0083.4743.011.8486.011.4754,0,1.0473-.0044,1.5214-.0082.3139-.0028.565-.0042.6755-.0042,5.3181.0218,10.0652-1.51,15.092-3.1306,2.7128-.8748,5.5179-1.779,8.4256-2.419a29.4661,29.4661,0,0,1,12.11-.5614c.5989.1086,1.19.2343,1.7744.3726v-.869c-.535-.1234-1.0751-.2373-1.6233-.3368A30.255,30.255,0,0,0,105.9336,73.8923Z"/>
      <path d="M105.9336,81.3921c-2.9471.6488-5.7718,1.5594-8.5036,2.44-4.9607,1.6-9.6452,3.1147-14.8288,3.09-.1122-.0006-.3668.0016-.6857.0042-.7411.006-1.9814.0162-2.3193-.0017a40.9251,40.9251,0,0,1-8.5024-1.4324c-1.7163-.5084-3.4209-1.0806-5.07-1.6338-5.8437-1.9609-11.3632-3.8122-17.6708-3.1793A56.4245,56.4245,0,0,0,35.79,83.8941a78.066,78.066,0,0,1-8.65,2.5774c-.1.0216-.2.0439-.2991.0662-.2312.0518-.45.1009-.6711.1384a24.32,24.32,0,0,1-6.383.0744c-.4391-.043-.8886-.0987-1.2753-.1475A48.7725,48.7725,0,0,1,8.0028,83.6788,70.05,70.05,0,0,0,0,81.1611v.869a70.8628,70.8628,0,0,1,7.7159,2.4455,50.1523,50.1523,0,0,0,10.69,2.9675c.3925.05.8489.1061,1.2989.15a25.1089,25.1089,0,0,0,6.6077-.0821c.2428-.0414.4823-.0951.7141-.1469.097-.0218.194-.0436.2919-.0645a78.7734,78.7734,0,0,0,8.745-2.6042A55.7988,55.7988,0,0,1,48.438,81.5214C54.5645,80.9048,60,82.73,65.755,84.6608c1.6555.5556,3.3676,1.13,5.0968,1.6424A41.1923,41.1923,0,0,0,79.5524,87.77c.16.0083.4749.0114.85.0114.4754,0,1.0468-.0047,1.52-.0086.2858-.0022.5192-.0041.6421-.0041l.1409,0c5.2737,0,9.9919-1.521,14.9845-3.1309,2.7128-.8745,5.5179-1.779,8.4256-2.419a29.46,29.46,0,0,1,12.11-.5611c.5989.1086,1.19.234,1.7744.3723v-.869c-.535-.1234-1.0751-.2372-1.6233-.3364A30.2508,30.2508,0,0,0,105.9336,81.3921Z"/>
      <path d="M105.9336,88.8922c-2.9471.6485-5.7718,1.5591-8.5036,2.44-4.9607,1.5993-9.6474,3.1041-14.8288,3.09-.1119.0005-.3668.0017-.6857.0041-.7411.0061-1.9814.016-2.3193-.0016a40.9131,40.9131,0,0,1-8.5024-1.4326c-1.7163-.5085-3.4209-1.08-5.07-1.6338-5.8437-1.9607-11.3632-3.8122-17.6708-3.1794A56.4572,56.4572,0,0,0,35.79,91.3939a78.0888,78.0888,0,0,1-8.65,2.5778c-.1.0212-.2.0438-.2991.0661-.2312.0518-.45.1006-.6711.1384a24.3329,24.3329,0,0,1-6.383.0744c-.4391-.043-.8886-.0987-1.2753-.1477a48.7777,48.7777,0,0,1-10.5089-2.924A69.93,69.93,0,0,0,0,88.6613V89.53a70.8186,70.8186,0,0,1,7.7159,2.4452,50.1464,50.1464,0,0,0,10.69,2.9675c.3925.05.8489.1061,1.2989.15a25.13,25.13,0,0,0,6.6077-.0821c.2428-.0416.4823-.0951.7141-.1472.097-.0218.194-.0435.2919-.0645a78.7511,78.7511,0,0,0,8.745-2.6039A55.7828,55.7828,0,0,1,48.438,89.0212c6.1259-.6163,11.562,1.2085,17.317,3.14,1.6555.5556,3.3676,1.13,5.0968,1.6424A41.1929,41.1929,0,0,0,79.5524,95.27c.16.0082.4743.011.8486.011.4754,0,1.0473-.0044,1.5214-.0083.3139-.0025.565-.0039.6755-.0042,5.3181.0149,10.0652-1.51,15.092-3.1306,2.7128-.8747,5.5179-1.779,8.4256-2.419a29.4661,29.4661,0,0,1,12.11-.5614c.5989.1086,1.19.2343,1.7744.3726v-.8689c-.535-.1235-1.0751-.2374-1.6233-.3368A30.2565,30.2565,0,0,0,105.9336,88.8922Z"/>
      <path d="M105.9336,96.3923c-2.9471.6485-5.7718,1.5591-8.5036,2.44-4.9276,1.5888-9.584,3.09-14.7255,3.09l-.1033,0c-.1119.0005-.3668.0017-.6857.0041-.7411.0058-1.9814.016-2.3193-.0016a40.9131,40.9131,0,0,1-8.5024-1.4326c-1.7163-.5085-3.4209-1.08-5.07-1.6338-5.8437-1.961-11.3632-3.8128-17.6708-3.1794A56.4572,56.4572,0,0,0,35.79,98.894a78.0888,78.0888,0,0,1-8.65,2.5778c-.1.0212-.2.0438-.2991.0661-.2312.0518-.45.1006-.6711.1384a24.3329,24.3329,0,0,1-6.383.0744c-.4391-.043-.8886-.0987-1.2753-.1477A48.7777,48.7777,0,0,1,8.0028,98.679,69.93,69.93,0,0,0,0,96.1614v.869a70.7747,70.7747,0,0,1,7.7159,2.4451,50.1464,50.1464,0,0,0,10.69,2.9675c.3925.05.8489.1061,1.2989.15a25.13,25.13,0,0,0,6.6077-.0821c.2428-.0417.4823-.0951.7141-.1472.097-.0218.194-.0435.2919-.0645a78.7511,78.7511,0,0,0,8.745-2.6039A55.7828,55.7828,0,0,1,48.438,96.5213c6.1259-.616,11.562,1.2085,17.317,3.14,1.6555.5556,3.3676,1.13,5.0968,1.6424a41.1929,41.1929,0,0,0,8.7006,1.4668c.16.0082.4743.011.8486.011.4754,0,1.0473-.0045,1.5214-.0083.3139-.0025.565-.0036.6755-.0041,5.3181.0215,10.0652-1.51,15.092-3.1306,2.7128-.8748,5.5179-1.7791,8.4256-2.4191a29.4661,29.4661,0,0,1,12.11-.5614c.5989.1086,1.19.2343,1.7744.3727v-.869c-.535-.1235-1.0751-.2373-1.6233-.3368A30.2565,30.2565,0,0,0,105.9336,96.3923Z"/>
      <path d="M105.9336,103.8922c-2.9471.6487-5.7718,1.5593-8.5036,2.44-4.9276,1.5889-9.5837,3.09-14.7252,3.09l-.1036,0c-.1122.0006-.3668.0017-.6857.0042-.7411.006-1.9814.016-2.3193-.0017a40.931,40.931,0,0,1-8.5024-1.4323c-1.7163-.5085-3.4209-1.0807-5.07-1.6338-5.8437-1.961-11.3632-3.8125-17.6708-3.1794A56.43,56.43,0,0,0,35.79,106.3941a78.0878,78.0878,0,0,1-8.65,2.5775c-.1.0215-.2.0438-.2991.0661-.2312.0518-.45.1009-.6711.1384a24.32,24.32,0,0,1-6.383.0744c-.4391-.043-.8886-.0987-1.2753-.1475a48.7779,48.7779,0,0,1-10.5089-2.9241A70.03,70.03,0,0,0,0,103.6612v.869a70.8191,70.8191,0,0,1,7.7159,2.4455,50.1521,50.1521,0,0,0,10.69,2.9674c.3925.05.8489.1061,1.2989.15a25.1089,25.1089,0,0,0,6.6077-.0821c.2428-.0413.4823-.0951.7141-.1469.097-.0218.194-.0435.2919-.0645a78.752,78.752,0,0,0,8.745-2.6042,55.7988,55.7988,0,0,1,12.3748-3.1739c6.1265-.6165,11.562,1.2083,17.317,3.1395,1.6555.5556,3.3676,1.13,5.0968,1.6423a41.1929,41.1929,0,0,0,8.7006,1.4668c.16.0083.4749.0113.85.0113.4754,0,1.0468-.0047,1.52-.0085.2858-.0023.5192-.0042.6421-.0042.0568,0,.0951,0,.1409,0,5.2737,0,9.9919-1.5211,14.9845-3.1309,2.7128-.8745,5.5179-1.7791,8.4256-2.419a29.46,29.46,0,0,1,12.11-.5612c.5989.1086,1.19.234,1.7744.3724v-.869c-.535-.1235-1.0751-.2373-1.6233-.3365A30.2493,30.2493,0,0,0,105.9336,103.8922Z"/>
      <path d="M105.9388,111.3912a81.9,81.9,0,0,0-8.8382,2.5176c-4.8493,1.5828-9.4346,3.0783-14.503,3.0132-.0719,0-.2026.0014-.3715.003-.7279.0064-2.2424.02-2.63-.0005a40.9065,40.9065,0,0,1-8.5024-1.4326c-1.6719-.4952-3.3327-1.0462-4.9389-1.5787-5.8818-1.95-11.4377-3.7932-17.8068-3.2337a60.3528,60.3528,0,0,0-12.4538,3.2089,81.7894,81.7894,0,0,1-8.758,2.5841c-.3219.0689-.6441.1381-.966.2034a27.1541,27.1541,0,0,1-6.3833.0747c-.4148-.0408-.8429-.09-1.2781-.148A48.9858,48.9858,0,0,1,7.701,113.6305,75.226,75.226,0,0,0,0,111.1828v.87a76.5193,76.5193,0,0,1,7.4152,2.3744,50.3554,50.3554,0,0,0,10.9877,3.0151c.4393.0585.8772.1089,1.3016.1505a27.947,27.947,0,0,0,6.5942-.08l.0265-.0045c.33-.067.659-.1375.993-.2092a82.3518,82.3518,0,0,0,8.8459-2.6083,59.7008,59.7008,0,0,1,12.2687-3.1692c6.1841-.543,11.6592,1.2727,17.4556,3.1951,1.6125.5347,3.28,1.0875,4.9634,1.5864a41.2058,41.2058,0,0,0,8.7006,1.4668c.17.0088.5195.0118.9277.0118.5837,0,1.2868-.0063,1.7534-.01l.3608-.0028c5.2071.067,9.8513-1.45,14.769-3.0551a81.368,81.368,0,0,1,8.7574-2.4956,29.6515,29.6515,0,0,1,12.0989-.5614q.9012.1769,1.78.3965v-.87c-.5366-.13-1.079-.2514-1.6294-.3591A30.4458,30.4458,0,0,0,105.9388,111.3912Z"/>
      <path d="M0,118.6611v.869q.91.2154,1.7989.47H4.6473C3.1422,119.496,1.5991,119.03,0,118.6611Z"/>
      <path d="M105.9336,118.8921c-1.4434.3177-2.857.6986-4.245,1.1077h3.2269c.3982-.0979.7978-.1924,1.2-.2809a29.4584,29.4584,0,0,1,12.11-.5611c.5989.1086,1.19.2339,1.7744.3723v-.869c-.535-.1234-1.0751-.2373-1.6233-.3365A30.251,30.251,0,0,0,105.9336,118.8921Z"/>
      <path d="M48.3534,118.1788A42.5624,42.5624,0,0,0,40.0163,120h3.0953a36.001,36.001,0,0,1,5.3264-.9785A29.1644,29.1644,0,0,1,58.7653,120h3.0964C57.4887,118.6528,53.1487,117.6976,48.3534,118.1788Z"/>
  </pattern>
  <rect x="0" y="0" width="100%" height="100%" fill="url(#waves)" />
</svg>
